<svg xmlns="http://www.w3.org/2000/svg" width="150" height="40" viewBox="0,0,150,40"><path d="M8 34 C83 4,58 24,149 36" stroke="#999" fill="none"/><path fill="#111" d="M18.53 9.25L18.48 9.20L18.58 9.30Q22.33 11.79 27.09 12.02L27.24 12.18L27.12 12.05Q31.68 12.17 35.95 10.41L36.09 10.56L36.10 10.57Q35.83 11.09 35.07 13.87L35.08 13.89L35.04 13.85Q32.21 14.78 29.24 14.94L29.30 15.00L29.33 15.02Q26.40 15.22 23.50 14.49L23.39 14.38L23.41 14.40Q24.16 18.09 24.35 21.74L24.32 21.70L24.26 21.64Q26.28 21.87 27.87 21.83L27.96 21.92L27.88 21.84Q29.17 21.91 31.56 21.79L31.64 21.87L31.52 21.75Q31.61 22.53 31.61 23.21L31.44 23.03L31.48 24.41L31.55 24.48Q29.04 24.37 24.24 24.44L24.27 24.48L24.25 24.46Q24.38 28.70 23.81 32.70L23.78 32.67L23.69 32.58Q26.39 32.00 29.13 32.11L29.03 32.01L29.20 32.18Q31.82 32.18 34.41 33.02L34.36 32.96L34.35 32.96Q34.51 33.84 34.78 34.60L34.82 34.64L35.13 36.02L35.15 36.04Q32.12 34.91 28.69 34.91L28.67 34.88L28.66 34.88Q23.66 34.75 19.40 37.00L19.40 37.00L19.45 37.05Q21.82 30.28 21.55 23.16L21.54 23.16L21.42 23.03Q21.17 15.89 18.51 9.23ZM18.87 37.68L18.87 37.69L18.90 37.72Q20.21 37.05 20.97 36.71L21.02 36.75L21.02 36.75Q20.74 37.42 20.17 38.95L20.13 38.91L20.22 39.00Q24.72 36.99 29.78 37.26L29.71 37.18L29.83 37.30Q35.06 37.66 39.06 40.36L39.06 40.37L39.04 40.35Q37.83 37.77 37.15 35.83L37.09 35.77L37.18 35.86Q36.15 35.21 35.16 34.87L35.07 34.78L35.17 34.87Q34.82 33.53 34.66 32.73L34.53 32.60L34.56 32.63Q31.45 31.61 28.29 31.61L28.42 31.74L28.40 31.72Q27.17 31.64 26.03 31.75L26.03 31.75L26.11 31.84Q26.24 30.60 26.28 29.38L26.32 29.42L26.35 26.85L26.38 26.89Q28.05 26.65 29.84 26.69L29.83 26.69L29.99 26.84Q31.77 26.84 33.56 26.99L33.54 26.97L33.54 26.96Q33.50 26.05 33.50 25.10L33.47 25.07L33.43 23.12L32.63 23.21L32.59 23.16Q32.17 23.23 31.71 23.23L31.69 23.21L31.88 23.40Q31.80 22.63 31.95 21.34L32.03 21.42L31.87 21.26Q30.30 21.52 29.12 21.55L29.07 21.50L29.11 21.55Q28.14 21.53 26.31 21.45L26.31 21.45L26.45 21.59Q26.39 20.20 26.20 17.38L26.08 17.26L26.15 17.33Q27.05 17.31 28.04 17.31L28.06 17.34L28.10 17.38Q32.88 17.44 36.58 15.54L36.57 15.53L36.62 15.58Q37.08 13.11 37.95 10.90L38.04 10.98L38.05 11.00Q36.63 11.74 35.79 12.09L35.90 12.19L35.87 12.17Q36.05 11.28 36.51 9.72L36.67 9.88L36.52 9.73Q31.84 11.83 26.97 11.53L27.09 11.65L27.01 11.57Q21.78 11.32 17.94 8.47L17.98 8.52L17.97 8.50Q20.81 15.42 21.12 23.03L21.08 23.00L21.11 23.03Q21.47 31.00 18.96 37.77Z"/><path fill="#222" d="M54.03 9.81L54.06 9.84L54.11 9.88Q55.25 12.16 57.19 12.16L57.15 12.13L57.08 12.06Q57.61 12.09 58.03 11.94L57.97 11.87L58.10 12.01Q57.87 17.11 57.83 23.50L57.72 23.39L57.67 23.34Q57.84 29.79 58.03 35.05L57.94 34.96L57.96 34.98Q57.60 34.85 57.22 34.85L57.14 34.77L57.16 34.79Q55.83 34.83 54.42 36.69L54.50 36.77L54.37 36.64Q55.14 30.02 55.10 23.32L54.95 23.18L54.96 23.18Q54.97 16.53 54.06 9.83ZM53.88 37.75L53.87 37.74L53.84 37.71Q54.84 36.28 56.02 35.55L55.93 35.47L56.01 35.54Q56.08 36.60 56.00 37.66L55.91 37.57L55.91 37.57Q56.74 37.15 57.50 37.26L57.47 37.22L57.58 37.34Q59.56 37.49 60.93 40.27L60.94 40.28L60.96 40.30Q59.74 32.91 59.74 25.64L59.74 25.64L59.74 25.64Q59.75 18.11 60.55 10.99L60.63 11.07L60.61 11.05Q59.49 12.79 58.42 13.43L58.32 13.33L58.44 13.46Q58.50 12.79 58.61 11.42L58.52 11.33L58.53 11.34Q57.77 11.80 57.01 11.68L57.04 11.71L56.92 11.59Q54.65 11.41 53.62 8.52L53.62 8.52L53.56 8.46Q54.61 15.90 54.72 23.06L54.84 23.18L54.86 23.19Q54.90 30.29 53.92 37.79Z"/><path fill="#333" d="M94.68 18.21L94.73 18.26L94.81 18.34Q93.06 14.23 86.85 14.42L86.74 14.31L86.83 14.40Q82.43 14.53 80.45 15.97L80.49 16.02L80.39 15.91Q78.08 17.75 78.08 21.86L77.98 21.76L78.14 23.79L77.96 23.61Q78.12 32.60 87.14 32.60L87.14 32.59L87.00 32.46Q89.15 32.55 90.63 31.75L90.55 31.67L90.51 31.63Q92.48 30.75 92.33 28.88L92.29 28.84L92.34 28.89Q92.07 26.71 88.38 25.80L88.31 25.73L86.41 25.77L86.43 25.79Q85.55 25.87 84.60 25.91L84.64 25.95L84.51 25.81Q84.59 24.95 84.56 23.05L84.59 23.08L84.42 22.91Q92.07 22.91 96.26 22.57L96.30 22.61L96.45 22.76Q96.28 23.46 96.28 24.26L96.25 24.23L96.34 24.32Q96.42 25.20 96.46 26.00L96.39 25.93L96.38 25.93Q95.25 25.90 95.25 25.90L95.16 25.81L95.15 25.80Q93.85 25.87 94.23 25.87L94.23 25.87L94.22 25.86Q95.27 27.44 95.65 29.42L95.69 29.46L95.74 29.51Q95.87 30.24 95.87 30.70L95.90 30.74L95.72 30.56Q95.87 35.35 87.07 35.35L87.00 35.27L87.07 35.34Q79.99 35.39 77.40 33.29L77.23 33.11L77.34 33.23Q75.39 30.90 75.39 25.84L75.26 25.70L75.27 25.72Q75.37 24.75 75.22 22.04L75.13 21.96L75.14 21.97Q74.96 19.58 75.00 18.21L75.17 18.39L75.17 18.38Q75.12 15.37 76.49 13.77L76.54 13.81L76.58 13.85Q79.07 11.73 83.94 11.54L84.02 11.62L86.57 11.43L86.73 11.59Q89.69 11.35 93.12 11.77L93.14 11.80L93.10 11.75Q96.88 12.26 97.83 15.49L97.81 15.48L97.88 15.55Q96.95 16.55 94.85 18.38ZM96.10 20.43L96.21 20.42L96.37 20.58Q97.43 19.36 99.29 17.38L99.31 17.40L99.39 17.47Q99.02 16.46 98.03 14.74L98.00 14.71L98.12 14.84Q96.84 12.07 93.04 11.42L92.98 11.37L93.07 11.46Q90.99 11.40 86.69 11.10L86.68 11.08L84.00 11.22L83.95 11.17Q78.69 11.28 76.10 13.26L76.18 13.34L76.28 13.43Q74.85 15.02 74.74 18.10L74.65 18.02L74.61 17.97Q74.64 17.55 74.87 23.03L74.94 23.10L75.04 23.20Q75.03 24.52 75.10 27.26L74.96 27.11L75.12 27.27Q75.15 31.57 76.90 33.51L76.93 33.55L77.07 33.68Q77.33 34.40 78.21 35.27L78.17 35.23L78.22 35.29Q81.19 37.23 86.71 37.58L86.64 37.50L89.51 37.67L89.52 37.68Q91.05 37.72 93.06 37.61L93.23 37.77L93.14 37.68Q94.67 37.69 96.77 37.16L96.61 37.01L96.71 37.11Q98.68 36.64 98.65 34.32L98.63 34.30L98.54 34.21Q98.51 32.92 97.44 30.15L97.51 30.21L97.44 30.14Q97.30 29.40 96.77 28.60L96.64 28.46L96.67 28.50Q97.32 28.57 98.50 28.77L98.54 28.81L98.49 28.75Q98.27 25.22 98.30 24.54L98.14 24.37L98.31 24.54Q97.88 24.49 97.46 24.45L97.34 24.33L97.37 24.36Q97.06 24.39 96.68 24.47L96.64 24.43L96.62 24.41Q96.57 23.26 96.64 22.19L96.70 22.25L96.70 22.25Q90.38 22.70 84.10 22.59L84.13 22.62L84.11 22.60Q84.16 23.52 84.16 24.44L84.28 24.56L84.15 26.18L84.14 26.17Q84.66 26.31 85.08 26.27L85.07 26.26L84.96 26.15Q85.51 26.29 85.97 26.29L85.84 26.16L85.95 26.27Q85.83 26.60 85.86 27.10L85.85 27.09L85.98 27.21Q85.95 27.64 85.92 28.14L85.84 28.06L85.88 28.10Q86.98 28.13 88.01 28.10L87.96 28.05L88.05 28.14Q88.91 27.97 89.94 28.01L90.05 28.12L90.13 28.20Q91.15 28.42 92.02 28.80L91.95 28.73L91.87 28.68L91.94 28.76Q92.05 30.24 90.38 31.15L90.37 31.14L90.47 31.25Q88.71 32.07 86.99 32.07L87.07 32.15L87.13 32.21Q83.24 32.16 80.80 30.41L80.76 30.37L80.82 30.42Q79.82 28.36 79.97 25.81L80.06 25.90L79.96 25.80Q80.22 20.95 82.06 18.96L82.22 19.12L82.19 19.09Q84.06 17.11 88.75 16.80L88.75 16.81L88.76 16.82Q92.25 16.43 94.19 18.22L94.25 18.27L94.19 18.21Q94.33 18.39 94.44 18.58L94.42 18.56L94.56 18.59L94.58 18.60Q95.24 19.38 95.81 20.48L95.77 20.44L96.19 20.51Z"/><path fill="#222" d="M108.86 10.88L108.83 10.85L108.79 10.81Q110.82 15.81 111.40 20.99L111.30 20.90L111.23 20.83Q115.04 16.79 120.94 11.96L120.84 11.86L121.01 12.03Q124.07 11.59 126.70 10.79L126.71 10.80L120.26 16.53L120.20 16.47Q116.70 19.33 113.84 22.18L113.96 22.30L113.88 22.22Q121.95 31.47 127.02 36.19L126.91 36.09L126.98 36.16Q123.90 35.25 121.58 35.10L121.59 35.10L121.46 34.98Q115.64 29.54 111.34 23.71L111.46 23.83L111.43 23.81Q111.47 30.35 109.61 35.68L109.78 35.86L109.69 35.76Q109.52 35.87 109.03 36.06L109.05 36.08L108.89 36.11L108.82 36.04Q108.74 36.19 106.19 37.11L106.17 37.08L106.16 37.07Q109.09 30.48 108.74 23.02L108.76 23.04L108.83 23.11Q108.52 15.80 104.98 9.29L104.86 9.17L105.44 9.47L105.79 9.71L106.00 9.89L105.99 9.88Q106.66 10.20 108.87 10.89ZM109.20 10.65L109.11 10.56L109.11 10.56Q106.88 10.04 104.26 8.52L104.15 8.41L104.11 8.38Q108.54 15.81 108.54 24.76L108.45 24.66L108.42 24.64Q108.49 31.71 105.52 37.77L105.55 37.80L107.64 36.99L107.58 36.93Q107.13 37.89 106.44 39.19L106.41 39.15L106.50 39.24Q108.67 38.37 110.61 37.95L110.70 38.03L110.65 37.76L110.75 37.86Q111.02 37.82 111.59 37.67L111.50 37.57L111.60 37.68Q113.29 31.80 113.41 27.00L113.38 26.97L113.42 27.01Q115.52 29.53 117.34 31.39L117.31 31.36L117.32 31.37Q118.40 32.37 121.41 35.34L121.36 35.30L121.48 35.41L121.54 35.48Q122.44 36.19 124.31 37.79L124.35 37.82L124.31 37.79Q128.28 38.59 131.74 40.31L131.72 40.29L131.73 40.30Q122.42 31.71 116.18 24.29L116.09 24.20L116.20 24.31Q120.51 19.94 129.27 11.34L129.34 11.41L129.25 11.32Q126.69 12.45 124.67 12.83L124.77 12.93L124.74 12.91Q125.88 11.84 128.20 9.82L128.25 9.87L128.35 9.96Q124.25 11.38 120.90 11.57L120.89 11.56L120.79 11.46Q117.81 13.62 112.94 18.30L113.02 18.39L113.04 18.41Q112.72 15.88 112.15 13.33L112.08 13.26L112.16 13.34Q110.90 13.11 109.91 12.77L109.82 12.68L109.89 12.74Q109.71 12.03 109.13 10.58Z"/></svg>